:FULLY-SPECIFIED
:FORCE-ALL-JOINTS-BE-3DOF
:DEGREES
99
root 0.64583 17.4683 16.5679 -0.0375748 0.758132 1.94429
lfemur -9.03161 2.65047 -23.2902
ltibia 61.5203 -0 0
lfoot 0.826239 -0.602094 0.00664951
ltoes -12.737 0 0
rfemur -15.9152 -5.58369 20.2997
rtibia 79.6358 -0 0
rfoot 10.7684 -6.50986 -0.0105548
rtoes 19.0976 -0 0
lowerback 17.8262 -1.13137 -2.61255
upperback 2.50963 -2.06312 -1.14602
thorax -7.21826 -0.948527 0.735944
lowerneck -6.69211 0.484058 -1.28585
upperneck -8.58089 0.772535 1.26526
head -1.51748 0.408176 0.634631
lclavicle -3.22031e-14 1.82882e-14 0
lhumerus -32.6048 -17.3374 88.6484
lradius 106.393 -0 0
lwrist 28.7005 0 0
lhand -36.7103 8.08222 -0.00463821
lfingers 7.12502 -0 0
lthumb -9.7951 37.833 -0.00423727
rclavicle -3.22031e-14 1.82882e-14 0
rhumerus -44.3914 8.46009 -85.1988
rradius 84.1139 -0 0
rwrist -0.558984 0 0
rhand -44.5779 38.3093 0.000124632
rfingers 7.12502 -0 0
rthumb -17.3775 9.06609 0.00011727
100
root 0.650546 17.4696 17.1089 -0.0486595 0.478262 1.8558
lfemur -8.64689 3.04367 -22.9821
ltibia 62.9206 -0 0
lfoot 1.84854 -0.600213 0.00678395
ltoes -12.5272 0 0
rfemur -16.081 -5.17355 20.5988
rtibia 77.9409 -0 0
rfoot 9.93287 -6.50622 -0.0107675
rtoes 18.6832 -0 0
lowerback 17.817 -1.15164 -2.43583
upperback 2.47686 -2.0487 -1.0447
thorax -7.25105 -0.944658 0.74132
lowerneck -6.68901 0.581209 -1.23201
upperneck -8.56239 0.887231 1.04735
head -1.51111 0.466325 0.557943
lclavicle -3.22031e-14 1.82882e-14 0
lhumerus -33.1202 -17.4523 88.8666
lradius 106.361 -0 0
lwrist 28.664 0 0
lhand -36.7494 8.11623 -0.00473098
lfingers 7.12502 -0 0
lthumb -9.8328 37.8652 -0.00432201
rclavicle -3.22031e-14 1.82882e-14 0
rhumerus -44.1588 8.60111 -85.2015
rradius 84.4191 -0 0
rwrist -0.668623 0 0
rhand -44.5748 38.3207 0.000127125
rfingers 7.12502 -0 0
rthumb -17.3745 9.07726 0.000119616
101
root 0.655262 17.471 17.6499 -0.0593117 0.198376 1.76737
lfemur -8.25991 3.43479 -22.6713
ltibia 64.321 -0 0
lfoot 2.87084 -0.598331 0.00688482
ltoes -12.3174 0 0
rfemur -16.2445 -4.76255 20.8965
rtibia 76.246 -0 0
rfoot 9.09732 -6.50258 -0.010927
rtoes 18.2687 -0 0
lowerback 17.8076 -1.17188 -2.2591
upperback 2.44411 -2.03422 -0.943388
thorax -7.28384 -0.940786 0.746694
lowerneck -6.68581 0.678356 -1.17817
upperneck -8.54433 1.002 0.829457
head -1.50481 0.524481 0.48126
lclavicle -3.22031e-14 1.82882e-14 0
lhumerus -33.6364 -17.5654 89.086
lradius 106.329 -0 0
lwrist 28.6275 0 0
lhand -36.7884 8.15024 -0.00480055
lfingers 7.12502 -0 0
lthumb -9.87049 37.8974 -0.00438557
rclavicle -3.22031e-14 1.82882e-14 0
rhumerus -43.9262 8.74214 -85.2036
rradius 84.7243 -0 0
rwrist -0.778263 0 0
rhand -44.5717 38.3322 0.000128994
rfingers 7.12502 -0 0
rthumb -17.3715 9.08843 0.000121375
102
root 0.659978 17.4723 18.1909 -0.0695318 -0.0815262 1.67899
lfemur -7.87064 3.8238 -22.3577
ltibia 65.7214 -0 0
lfoot 3.89315 -0.596447 0.00695208
ltoes -12.1076 0 0
rfemur -16.4057 -4.35072 21.1928
rtibia 74.5511 -0 0
rfoot 8.26177 -6.49893 -0.0110334
rtoes 17.8542 -0 0
lowerback 17.7982 -1.19209 -2.08237
upperback 2.41139 -2.01969 -0.842084
thorax -7.31662 -0.936911 0.752065
lowerneck -6.68252 0.7755 -1.12433
upperneck -8.5267 1.11683 0.611598
head -1.4986 0.582646 0.404583
lclavicle -3.22031e-14 1.82882e-14 0
lhumerus -34.1533 -17.6766 89.3066
lradius 106.297 -0 0
lwrist 28.5909 0 0
lhand -36.8275 8.18425 -0.00484693
lfingers 7.12502 -0 0
lthumb -9.90818 37.9296 -0.00442795
rclavicle -3.22031e-14 1.82882e-14 0
rhumerus -43.6934 8.88317 -85.2051
rradius 85.0294 -0 0
rwrist -0.887901 0 0
rhand -44.5686 38.3436 0.000130241
rfingers 7.12502 -0 0
rthumb -17.3685 9.0996 0.000122547
103
root 0.664694 17.4737 18.7319 -0.0793203 -0.361444 1.59066
lfemur -7.47905 4.21067 -22.0413
ltibia 67.1217 -0 0
lfoot 4.91545 -0.594562 0.00698571
ltoes -11.8978 0 0
rfemur -16.5648 -3.93806 21.4878
rtibia 72.8562 -0 0
rfoot 7.42623 -6.49528 -0.0110865
rtoes 17.4398 -0 0
lowerback 17.7888 -1.21226 -1.90564
upperback 2.3787 -2.00509 -0.740789
thorax -7.34941 -0.933033 0.757434
lowerneck -6.67914 0.872642 -1.07048
upperneck -8.5095 1.23173 0.393765
head -1.49246 0.640819 0.327912
lclavicle -3.22031e-14 1.82882e-14 0
lhumerus -34.671 -17.7858 89.5284
lradius 106.265 -0 0
lwrist 28.5544 0 0
lhand -36.8666 8.21826 -0.00487013
lfingers 7.12502 -0 0
lthumb -9.94587 37.9618 -0.00444913
rclavicle -3.22031e-14 1.82882e-14 0
rhumerus -43.4606 9.02421 -85.206
rradius 85.3346 -0 0
rwrist -0.997541 0 0
rhand -44.5655 38.355 0.000130864
rfingers 7.12502 -0 0
rthumb -17.3655 9.11077 0.000123134
104
root 0.669409 17.475 19.273 -0.0886777 -0.641377 1.50237
lfemur -7.08513 4.59536 -21.7221
ltibia 68.5221 -0 0
lfoot 5.93775 -0.592676 0.00698571
ltoes -11.688 0 0
rfemur -16.7216 -3.5246 21.7815
rtibia 71.1613 -0 0
rfoot 6.59067 -6.49164 -0.0110865
rtoes 17.0253 -0 0
lowerback 17.7793 -1.23242 -1.7289
upperback 2.34603 -1.99044 -0.639504
thorax -7.38219 -0.929152 0.762801
lowerneck -6.67567 0.96978 -1.01662
upperneck -8.49275 1.34669 0.175956
head -1.4864 0.699 0.251246
lclavicle -3.22031e-14 1.82882e-14 0
lhumerus -35.1894 -17.8931 89.7514
lradius 106.232 -0 0
lwrist 28.5179 0 0
lhand -36.9056 8.25227 -0.00487013
lfingers 7.12502 -0 0
lthumb -9.98357 37.994 -0.00444913
rclavicle -3.22031e-14 1.82882e-14 0
rhumerus -43.2277 9.16525 -85.2064
rradius 85.6397 -0 0
rwrist -1.10718 0 0
rhand -44.5623 38.3665 0.000130864
rfingers 7.12502 -0 0
rthumb -17.3624 9.12195 0.000123134
105
root 0.674125 17.4764 19.814 -0.0976043 -0.921323 1.41413
lfemur -6.68884 4.97785 -21.4
ltibia 69.9224 -0 0
lfoot 6.96005 -0.590791 0.00695208
ltoes -11.4782 0 0
rfemur -16.8762 -3.11034 22.074
rtibia 69.4664 -0 0
rfoot 5.75513 -6.48799 -0.0110334
rtoes 16.6109 -0 0
lowerback 17.7697 -1.25254 -1.55216
upperback 2.31339 -1.97574 -0.538228
thorax -7.41498 -0.925268 0.768166
lowerneck -6.67211 1.06691 -0.96275
upperneck -8.47643 1.46172 -0.0418292
head -1.48041 0.75719 0.174585
lclavicle -3.22031e-14 1.82882e-14 0
lhumerus -35.7086 -17.9986 89.9755
lradius 106.2 -0 0
lwrist 28.4814 0 0
lhand -36.9447 8.28628 -0.00484693
lfingers 7.12502 -0 0
lthumb -10.0213 38.0262 -0.00442795
rclavicle -3.22031e-14 1.82882e-14 0
rhumerus -42.9947 9.30629 -85.2062
rradius 85.9449 -0 0
rwrist -1.21682 0 0
rhand -44.5592 38.3779 0.000130241
rfingers 7.12502 -0 0
rthumb -17.3594 9.13312 0.000122547
106
root 0.678841 17.4777 20.355 -0.1061 -1.20128 1.32591
lfemur -6.29016 5.35811 -21.0752
ltibia 71.3228 -0 0
lfoot 7.98236 -0.588907 0.00688482
ltoes -11.2684 0 0
rfemur -17.0287 -2.6953 22.3652
rtibia 67.7715 -0 0
rfoot 4.91958 -6.48434 -0.010927
rtoes 16.1964 -0 0
lowerback 17.76 -1.27263 -1.37541
upperback 2.28077 -1.96097 -0.436961
thorax -7.44776 -0.921381 0.773528
lowerneck -6.66845 1.16405 -0.908875
upperneck -8.46055 1.57681 -0.259594
head -1.47451 0.815387 0.0979291
lclavicle -3.22031e-14 1.82882e-14 0
lhumerus -36.2285 -18.102 90.2007
lradius 106.168 -0 0
lwrist 28.4448 0 0
lhand -36.9838 8.32029 -0.00480055
lfingers 7.12502 -0 0
lthumb -10.059 38.0584 -0.00438557
rclavicle -3.22031e-14 1.82882e-14 0
rhumerus -42.7616 9.44733 -85.2054
rradius 86.25 -0 0
rwrist -1.32646 0 0
rhand -44.5561 38.3893 0.000128994
rfingers 7.12502 -0 0
rthumb -17.3564 9.14429 0.000121375
